<?xml version="1.0" standalone="no"?>
<!DOCTYPE svg PUBLIC "-//W3C//DTD SVG 20010904//EN"
 "http://www.w3.org/TR/2001/REC-SVG-20010904/DTD/svg10.dtd">
<svg version="1.0" xmlns="http://www.w3.org/2000/svg"
 width="249.000000pt" height="202.000000pt" viewBox="0 0 249.000000 202.000000"
 preserveAspectRatio="xMidYMid meet">

<g transform="translate(0.000000,202.000000) scale(0.100000,-0.100000)"
fill="#000000" stroke="none">
<path d="M1612 1718 c3 -7 14 -14 26 -16 12 -2 22 -6 22 -10 0 -4 -36 -45 -79
-92 l-78 -85 -67 58 c-37 31 -73 57 -80 57 -6 0 -32 -20 -56 -45 -24 -25 -48
-45 -53 -45 -6 0 -7 18 -3 41 5 30 2 48 -9 65 -15 24 -17 24 -194 24 -131 0
-181 -3 -189 -12 -6 -8 -10 -88 -10 -206 l1 -193 -46 -68 c-26 -37 -47 -73
-47 -79 0 -7 13 -12 30 -12 26 0 32 -6 51 -50 40 -94 139 -160 238 -160 45 0
38 17 -18 40 -27 12 -61 35 -77 51 l-28 29 51 0 c38 0 54 -5 69 -21 10 -12 39
-31 64 -42 40 -18 72 -21 283 -25 207 -3 241 -2 262 12 44 29 25 106 -25 106
-16 0 -31 38 -30 75 0 6 2 42 4 80 5 105 -4 115 -108 115 -64 0 -85 3 -89 15
-10 24 -88 75 -133 86 -36 9 -44 16 -49 41 -6 27 -1 36 51 89 32 33 61 59 64
59 3 0 36 -28 74 -62 l69 -62 86 92 c47 51 89 92 94 92 4 0 7 -7 7 -15 0 -8 7
-15 16 -15 12 0 14 10 12 48 l-3 47 -54 3 c-40 2 -52 0 -49 -10z m-402 -83 c6
-8 9 -23 5 -35 -6 -20 -12 -20 -173 -18 -152 3 -167 5 -170 21 -9 45 -1 47
166 47 127 0 162 -3 172 -15z m4 -95 c7 -7 7 -15 0 -28 -10 -15 -31 -17 -175
-17 l-164 0 -3 27 c-3 26 -2 27 55 30 112 6 276 -1 287 -12z m4 -101 c5 -26
-86 -41 -223 -37 l-120 3 -3 28 -3 27 173 -2 c148 -3 173 -5 176 -19z m83 -61
c96 -28 155 -119 147 -226 -6 -83 -27 -112 -81 -112 -54 0 -67 -10 -76 -51 -6
-32 -10 -34 -51 -37 -55 -4 -117 19 -160 61 -168 164 -5 433 221 365z m-231
-16 c0 -5 -11 -19 -24 -31 -20 -19 -32 -22 -97 -19 -72 3 -74 4 -77 31 l-3 27
100 0 c56 0 101 -4 101 -8z m-70 -96 c0 -37 -12 -46 -59 -46 -50 0 -71 13 -71
42 0 15 9 18 65 18 49 0 65 -3 65 -14z m595 4 c3 -6 3 -19 0 -30 -9 -29 -109
-29 -125 -1 -5 11 -10 24 -10 30 0 14 127 15 135 1z m-675 -132 c0 -4 -10 -8
-22 -10 -18 -2 -22 -8 -19 -28 4 -32 38 -99 64 -127 13 -15 16 -23 8 -23 -23
0 -81 73 -99 124 -10 28 -24 51 -34 54 -23 6 -23 10 8 55 l26 38 33 -38 c19
-21 34 -41 35 -45z m60 32 c0 -11 0 -23 1 -27 2 -20 -21 -10 -41 17 l-21 30
30 0 c24 0 31 -4 31 -20z m615 -10 c0 -23 -4 -25 -57 -28 l-58 -3 0 31 0 31
58 -3 c53 -3 57 -5 57 -28z m-591 -82 c9 -37 8 -38 -34 -38 -29 0 -42 5 -50
19 -17 34 -11 41 34 41 37 0 45 -4 50 -22z m591 -8 c0 -24 -3 -25 -72 -28 -40
-2 -73 -1 -73 2 0 3 4 16 10 31 9 25 13 26 72 23 60 -3 63 -4 63 -28z m70 -90
l0 -25 -168 -3 c-142 -2 -168 0 -173 13 -4 8 -4 22 0 30 5 13 31 15 173 13
l168 -3 0 -25z"/>
<path d="M1206 1275 c-73 -30 -57 -109 24 -117 31 -3 35 -6 35 -33 0 -27 -4
-30 -32 -33 -19 -2 -33 1 -33 7 0 6 -9 11 -20 11 -17 0 -19 -3 -10 -19 5 -11
19 -23 30 -26 11 -3 20 -13 20 -21 0 -8 7 -14 15 -14 8 0 15 6 15 14 0 7 11
21 25 30 49 32 25 106 -34 106 -33 0 -54 21 -49 47 4 22 43 29 74 12 25 -13
41 -8 30 10 -4 5 -19 16 -34 23 -22 11 -34 12 -56 3z"/>
<path d="M1060 1170 c0 -5 5 -10 10 -10 6 0 10 5 10 10 0 6 -4 10 -10 10 -5 0
-10 -4 -10 -10z"/>
<path d="M1380 1170 c0 -5 7 -10 15 -10 8 0 15 5 15 10 0 6 -7 10 -15 10 -8 0
-15 -4 -15 -10z"/>
<path d="M190 795 c0 -18 5 -25 20 -25 19 0 20 -7 20 -115 l0 -115 30 0 30 0
0 115 c0 108 1 115 20 115 15 0 20 7 20 25 0 24 -2 25 -70 25 -68 0 -70 -1
-70 -25z"/>
<path d="M406 799 c-25 -20 -26 -25 -26 -115 0 -87 2 -97 25 -119 29 -30 74
-32 106 -6 22 18 24 26 24 121 0 95 -2 103 -24 121 -30 25 -72 24 -105 -2z
m72 -116 c-3 -84 -6 -98 -20 -101 -16 -3 -18 7 -18 97 0 95 1 101 20 101 20 0
21 -5 18 -97z"/>
<path d="M590 795 c0 -18 5 -25 20 -25 19 0 20 -7 20 -115 l0 -115 30 0 30 0
0 115 c0 108 1 115 20 115 15 0 20 7 20 25 0 24 -2 25 -70 25 -68 0 -70 -1
-70 -25z"/>
<path d="M800 802 c-24 -19 -25 -26 -25 -122 0 -96 1 -103 25 -122 19 -15 34
-19 64 -15 58 8 66 25 66 137 0 112 -8 129 -66 137 -30 4 -45 0 -64 -15z m74
-38 c9 -24 7 -157 -3 -173 -5 -8 -16 -11 -25 -8 -13 5 -16 23 -16 95 0 49 3
92 7 95 11 12 31 7 37 -9z"/>
<path d="M1000 680 l0 -140 30 0 30 0 0 60 c0 57 1 60 25 60 16 0 25 6 25 15
0 9 -9 15 -25 15 -23 0 -25 3 -25 50 0 47 2 50 25 50 16 0 25 6 25 15 0 12
-13 15 -55 15 l-55 0 0 -140z"/>
<path d="M1170 680 l0 -140 30 0 30 0 0 140 0 140 -30 0 -30 0 0 -140z"/>
<path d="M1300 680 l0 -140 25 0 c24 0 25 2 26 68 l1 67 25 -67 c19 -50 31
-68 44 -68 18 0 19 10 19 140 l0 140 -25 0 c-24 0 -25 -3 -26 -62 l0 -63 -26
63 c-19 44 -32 62 -45 62 -17 0 -18 -11 -18 -140z"/>
<path d="M1545 798 c-7 -31 -45 -240 -45 -250 0 -4 11 -8 24 -8 19 0 26 7 31
31 9 41 48 38 53 -3 3 -22 9 -28 28 -28 29 0 29 0 1 155 l-22 120 -32 3 c-27
3 -33 -1 -38 -20z m46 -117 c2 -29 -1 -46 -9 -49 -13 -4 -17 53 -6 83 9 22 12
16 15 -34z"/>
<path d="M1720 681 l0 -141 25 0 c23 0 24 3 27 68 l3 67 25 -65 c16 -40 32
-66 43 -68 15 -3 17 10 17 137 0 134 -1 141 -20 141 -18 0 -20 -7 -20 -62 0
-70 -9 -69 -38 7 -14 35 -26 51 -41 53 -21 3 -21 0 -21 -137z"/>
<path d="M1955 795 c-23 -22 -25 -32 -25 -115 0 -83 2 -93 25 -115 47 -48 125
-20 125 45 0 25 -4 30 -24 30 -19 0 -25 -6 -28 -27 -2 -17 -10 -29 -20 -31
-16 -3 -18 7 -18 98 0 91 2 101 18 98 10 -2 18 -14 20 -31 3 -21 9 -27 28 -27
21 0 24 5 24 34 0 64 -78 89 -125 41z"/>
<path d="M2150 680 l0 -140 60 0 c45 0 60 3 60 14 0 9 -12 16 -32 18 -31 3
-33 6 -36 46 -3 39 -1 42 22 42 32 0 35 27 4 32 -20 3 -23 9 -23 48 0 43 1 45
33 48 20 2 32 9 32 18 0 11 -15 14 -60 14 l-60 0 0 -140z"/>
<path d="M790 337 c0 -25 -3 -52 -6 -61 -3 -9 -1 -16 5 -16 6 0 11 17 12 38
l1 37 10 -37 c12 -44 28 -50 28 -11 0 29 15 22 23 -12 3 -11 5 8 6 43 1 49 -2
62 -14 62 -9 0 -15 -9 -15 -24 0 -35 -18 -42 -22 -9 -5 47 -28 40 -28 -10z"/>
<path d="M909 353 c-21 -57 18 -114 56 -83 18 15 20 81 3 98 -21 21 -48 14
-59 -15z m41 -33 c0 -22 -4 -40 -10 -40 -5 0 -10 18 -10 40 0 22 5 40 10 40 6
0 10 -18 10 -40z"/>
<path d="M1010 320 c0 -33 4 -60 10 -60 6 0 10 12 10 28 l1 27 15 -27 c8 -16
17 -28 19 -28 3 0 4 28 4 63 -1 47 -3 55 -8 32 l-8 -30 -13 28 c-21 42 -30 32
-30 -33z"/>
<path d="M1110 320 c0 -59 1 -60 28 -60 23 1 24 2 10 11 -20 11 -25 49 -7 49
8 0 7 5 -2 16 -11 14 -10 18 6 30 18 13 17 14 -8 14 -26 0 -27 -2 -27 -60z"/>
<path d="M1195 339 c8 -23 15 -50 15 -60 0 -11 5 -19 10 -19 6 0 10 13 10 29
0 16 5 42 10 57 13 33 5 44 -15 18 -13 -17 -14 -17 -15 -1 0 9 -7 17 -15 17
-12 0 -12 -5 0 -41z"/>
<path d="M1337 373 c-4 -3 -7 -28 -7 -55 0 -52 18 -71 48 -51 22 13 27 33 8
33 -9 0 -16 -4 -16 -10 0 -5 -4 -10 -10 -10 -5 0 -10 18 -10 40 0 22 5 40 10
40 6 0 10 -4 10 -10 0 -5 7 -10 15 -10 18 0 19 12 3 28 -13 13 -41 16 -51 5z"/>
<path d="M1433 323 c-12 -64 -8 -78 12 -50 13 18 14 18 23 0 18 -30 25 -6 16
49 -13 77 -37 77 -51 1z m31 -8 c3 -8 1 -15 -4 -15 -6 0 -10 7 -10 15 0 8 2
15 4 15 2 0 6 -7 10 -15z"/>
<path d="M1530 320 c0 -58 19 -88 21 -32 l1 27 11 -27 c13 -34 42 -39 32 -5
-9 29 -9 29 0 50 10 23 -11 47 -41 47 -23 0 -24 -3 -24 -60z m44 19 c-10 -16
-24 -9 -24 12 0 18 2 19 15 9 8 -7 12 -16 9 -21z"/>
<path d="M1630 320 c0 -59 1 -60 28 -60 23 1 24 2 10 11 -23 13 -24 49 -1 49
15 0 14 2 -3 15 -19 15 -19 15 0 30 19 14 19 15 -7 15 -26 0 -27 -2 -27 -60z"/>
</g>
</svg>
